<svg width="24" height="24" viewBox="0 0 24 24" fill="none" xmlns="http://www.w3.org/2000/svg">
<path fill-rule="evenodd" clip-rule="evenodd" d="M16.4249 0.764141L15.5537 2.16509C17.0373 3.25741 18 5.01628 18 7H6C6 5.01622 6.96273 3.25731 8.44647 2.165L7.57528 0.764141C7.42977 0.529766 7.50155 0.221172 7.73592 0.075176C7.97127 -0.0698435 8.27889 0.000957183 8.42489 0.23582L9.29876 1.641C10.1106 1.23097 11.0283 1 12 1C12.9717 1 13.8895 1.23099 14.7014 1.64106L15.5753 0.235821C15.7213 0.000957219 16.0289 -0.0698436 16.2643 0.075176C16.4986 0.221172 16.5704 0.529766 16.4249 0.764141ZM10 4.5C10 4.77614 9.77614 5 9.5 5C9.22386 5 9 4.77614 9 4.5C9 4.22386 9.22386 4 9.5 4C9.77614 4 10 4.22386 10 4.5ZM15 4.5C15 4.77614 14.7761 5 14.5 5C14.2239 5 14 4.77614 14 4.5C14 4.22386 14.2239 4 14.5 4C14.7761 4 15 4.22386 15 4.5Z" fill="white"/>
<path d="M6 8V17C6 18.1046 6.89543 19 8 19V22.5C8 23.3271 8.67285 24 9.5 24C10.3272 24 11 23.3271 11 22.5V19H13V22.5C13 23.3271 13.6729 24 14.5 24C15.3272 24 16 23.3271 16 22.5V19C17.1046 19 18 18.1046 18 17V8H6Z" fill="white"/>
<path d="M19 9.5C19 8.67285 19.6729 8 20.5 8C21.3272 8 22 8.67285 22 9.5V15.5C22 16.3272 21.3272 17 20.5 17C19.6729 17 19 16.3272 19 15.5V9.5Z" fill="white"/>
<path d="M2 9.5C2 8.67285 2.67285 8 3.5 8C4.32715 8 5 8.67285 5 9.5V15.5C5 16.3272 4.32715 17 3.5 17C2.67285 17 2 16.3272 2 15.5V9.5Z" fill="white"/>
</svg>
