<svg width="21" height="21" viewBox="0 0 21 21" fill="none" xmlns="http://www.w3.org/2000/svg">
<path fill-rule="evenodd" clip-rule="evenodd" d="M2.52092 8.60028C2.38824 9.18502 2.31818 9.79356 2.31818 10.4185C2.31818 11.0434 2.38824 11.6519 2.52092 12.2366H6.10218C6.0169 11.6432 5.96735 11.0424 5.95474 10.4374C5.95448 10.4248 5.95448 10.4121 5.95474 10.3995C5.96735 9.79451 6.0169 9.19374 6.10218 8.60028H2.52092ZM3.16865 6.78209H6.48107C6.89855 5.26284 7.55654 3.81669 8.43246 2.50012C6.12256 3.10157 4.20981 4.68704 3.16865 6.78209ZM10.5 2.73737C9.55484 3.95507 8.83814 5.32566 8.37672 6.78209H12.6233C12.1619 5.32566 11.4452 3.95507 10.5 2.73737ZM13.0583 8.60028H7.94171C7.84339 9.19859 7.78659 9.80602 7.77294 10.4185C7.78659 11.0309 7.84339 11.6383 7.94171 12.2366H13.0583C13.1566 11.6383 13.2134 11.0309 13.2271 10.4185C13.2134 9.80602 13.1566 9.19859 13.0583 8.60028ZM14.8978 12.2366C14.9831 11.6432 15.0327 11.0424 15.0453 10.4374C15.0455 10.4248 15.0455 10.4121 15.0453 10.3995C15.0327 9.79451 14.9831 9.19374 14.8978 8.60028H18.4791C18.6118 9.18502 18.6818 9.79356 18.6818 10.4185C18.6818 11.0434 18.6118 11.6519 18.4791 12.2366H14.8978ZM12.6233 14.0548H8.37672C8.83814 15.5113 9.55484 16.8818 10.5 18.0996C11.4452 16.8818 12.1619 15.5113 12.6233 14.0548ZM8.43246 18.3368C7.55654 17.0202 6.89855 15.5741 6.48107 14.0548H3.16865C4.20981 16.1499 6.12255 17.7353 8.43246 18.3368ZM12.5675 18.3368C13.4435 17.0202 14.1015 15.5741 14.5189 14.0548H17.8313C16.7902 16.1499 14.8774 17.7353 12.5675 18.3368ZM17.8313 6.78209H14.5189C14.1015 5.26284 13.4435 3.81669 12.5675 2.50012C14.8774 3.10157 16.7902 4.68704 17.8313 6.78209ZM0.5 10.4185C0.5 4.89561 4.97715 0.418457 10.5 0.418457C16.0228 0.418457 20.5 4.89561 20.5 10.4185C20.5 15.9413 16.0228 20.4185 10.5 20.4185C4.97715 20.4185 0.5 15.9413 0.5 10.4185Z" fill="white"/>
</svg>
