<svg width="92" height="36" viewBox="0 0 92 36" fill="none" xmlns="http://www.w3.org/2000/svg">
<g opacity="0.7">
<path d="M32.4499 32.2491C22.9603 32.2491 13.4864 32.2491 3.99463 32.2491C3.99463 22.7488 3.99463 13.257 3.99463 3.75C13.4755 3.75 22.9543 3.75 32.4499 3.75C32.4499 13.2397 32.4499 22.7318 32.4499 32.2491ZM13.1474 22.8583C12.8591 22.6116 12.5429 22.3605 12.2491 22.0861C11.5123 21.3977 10.7424 20.7573 9.83824 20.2846C8.69254 19.6857 7.61683 19.7832 6.62792 20.5999C6.28275 20.8849 5.9574 21.2076 5.68481 21.5594C5.34757 21.9945 5.08073 22.4817 4.77246 22.9392C4.38136 23.5195 4.36701 24.056 4.77793 24.6221C4.94266 24.849 5.16412 25.0353 5.34935 25.2488C6.30558 26.3516 7.28396 27.4372 8.203 28.5693C8.76772 29.2649 9.28186 30.0094 9.7379 30.7782C9.99667 31.2144 10.3196 31.4884 10.7841 31.622C12.2107 32.0323 13.6283 31.9949 15.0151 31.4629C16.018 31.0783 16.7011 30.3985 16.9559 29.3308C17.0687 28.8581 17.2424 28.3973 17.4166 27.9412C18.5492 24.9748 19.9628 22.1403 21.5952 19.411C22.29 18.2491 23.0222 17.1072 23.9356 16.0966C25.4417 14.4302 26.8139 12.6596 28.189 10.8903C29.2282 9.55325 30.2021 8.16499 31.368 6.92591C31.5286 6.75521 31.6667 6.56311 31.8071 6.37518C32.3005 5.71509 31.8951 5.05163 31.3788 4.74384C30.905 4.46148 30.3568 4.39099 29.8192 4.42745C29.0483 4.47964 28.2809 4.5878 27.5142 4.68842C26.3288 4.84393 25.3044 5.32941 24.4406 6.15174C23.7043 6.85287 23.0482 7.62099 22.4653 8.44506C21.0608 10.431 19.6641 12.4226 18.29 14.4288C16.7828 16.6295 15.3532 18.8787 14.0533 21.2056C13.7307 21.7835 13.417 22.3661 13.1474 22.8583Z" fill="white"/>
<path d="M73.5346 13.9254C74.0846 13.9254 74.62 13.9254 75.1525 13.9254C75.2909 14.4879 75.5467 14.7177 76.0446 14.7349C76.6749 14.7569 77.0736 14.4953 77.246 13.9466C77.363 13.5745 77.3942 12.9563 77.3284 12.4941C77.1 12.6858 76.88 12.9427 76.6013 13.0916C75.6937 13.5764 74.599 13.2793 73.9906 12.4108C73.3932 11.5579 73.2231 10.5951 73.2954 9.58086C73.346 8.86945 73.5333 8.1951 73.9293 7.58953C74.4691 6.76426 75.3016 6.41478 76.2626 6.60383C76.7663 6.70284 77.0879 7.01674 77.3256 7.52102C77.3256 7.23496 77.3256 7.00991 77.3256 6.76747C77.9149 6.76747 78.4831 6.76747 79.0658 6.76747C79.0714 6.80694 79.0831 6.85163 79.0831 6.89645C79.0816 9.00913 79.0896 11.1218 79.0677 13.2342C79.0634 13.6517 78.9808 14.0777 78.8702 14.4826C78.6657 15.231 78.163 15.7274 77.4051 15.9322C76.5049 16.1753 75.6014 16.1605 74.7221 15.8376C73.9358 15.5487 73.4541 14.7563 73.5346 13.9254ZM75.0435 9.94118C75.06 9.94399 75.0766 9.9468 75.0932 9.94974C75.0889 10.4167 75.1202 10.8791 75.303 11.317C75.4359 11.6353 75.645 11.8775 76.0061 11.9475C76.5157 12.0464 76.9496 11.8245 77.1168 11.2956C77.2425 10.8978 77.3037 10.4705 77.3267 10.0528C77.3558 9.52105 77.3117 8.98599 77.0853 8.48692C76.8728 8.01822 76.4641 7.80816 75.9764 7.92215C75.5833 8.01407 75.3641 8.30201 75.2724 8.65818C75.1644 9.07791 75.1171 9.51289 75.0435 9.94118Z" fill="white"/>
<path d="M50.5415 13.0603C50.5415 10.9503 50.5415 8.85915 50.5415 6.73871C50.7959 6.73871 51.042 6.73871 51.2881 6.73871C51.5366 6.73871 51.7853 6.745 52.0335 6.73644C52.171 6.73162 52.2173 6.78233 52.2109 6.91466C52.2026 7.08217 52.2088 7.25036 52.2286 7.43045C52.6825 6.79263 53.2986 6.49279 54.0638 6.56798C54.8121 6.64157 55.3739 7.0312 55.7462 7.70581C55.8477 7.57335 55.9443 7.4437 56.0447 7.31672C56.9131 6.2177 58.3863 6.37652 59.1973 7.34268C59.531 7.74019 59.5861 8.23217 59.5917 8.71719C59.6079 10.1328 59.5979 11.5488 59.5976 12.9646C59.5976 12.991 59.5903 13.0172 59.5842 13.0587C59.0315 13.0587 58.4836 13.0587 57.9065 13.0587C57.9065 12.9842 57.9065 12.9122 57.9065 12.8401C57.9065 11.6295 57.9154 10.4187 57.8996 9.20824C57.896 8.93381 57.8429 8.64748 57.7489 8.38939C57.5093 7.73136 56.6914 7.61884 56.2528 8.16755C56.0058 8.47649 55.9172 8.83949 55.9153 9.22242C55.9094 10.4194 55.9121 11.6163 55.9115 12.8132C55.9115 12.8931 55.9115 12.9729 55.9115 13.062C55.3363 13.062 54.787 13.062 54.2195 13.062C54.2195 12.976 54.2195 12.9019 54.2195 12.8278C54.2195 11.6171 54.2225 10.4065 54.2176 9.19593C54.2162 8.85233 54.1733 8.51288 53.9767 8.21411C53.661 7.73498 52.9924 7.684 52.6098 8.11389C52.3099 8.45107 52.2271 8.86277 52.2263 9.29628C52.2242 10.4728 52.2252 11.6491 52.2249 12.8256C52.2249 12.8992 52.2249 12.9729 52.2249 13.0604C51.6538 13.0603 51.1055 13.0603 50.5415 13.0603Z" fill="white"/>
<path d="M40.3048 9.74203C39.8575 9.74203 39.4318 9.74203 38.9898 9.74203C38.9898 9.23119 38.9898 8.736 38.9898 8.22489C39.9113 8.22489 40.8384 8.22489 41.7808 8.22489C41.7839 8.28844 41.7901 8.35454 41.7901 8.4205C41.7907 9.80198 41.7878 11.1833 41.7943 12.5648C41.795 12.7183 41.7523 12.7906 41.604 12.8467C40.8316 13.1388 40.0227 13.1926 39.2098 13.2571C37.1697 13.4188 36.2071 12.1191 35.7871 10.8568C35.4647 9.88774 35.4087 8.88773 35.4724 7.87768C35.5205 7.11556 35.6597 6.37111 35.9895 5.67535C36.4307 4.74451 37.0979 4.04033 38.1533 3.84686C39.0773 3.6776 39.9893 3.78544 40.8053 4.29134C41.5208 4.73488 41.7842 5.44428 41.8718 6.23624C41.8896 6.398 41.8913 6.5615 41.9011 6.73785C41.3712 6.73785 40.8579 6.73785 40.3403 6.73785C40.3121 6.53742 40.2974 6.33953 40.2547 6.14793C40.1279 5.57995 39.7128 5.24077 39.1268 5.21161C38.2418 5.16745 37.638 5.59521 37.3219 6.50223C37.0309 7.33754 36.9912 8.20201 37.0468 9.07384C37.0883 9.72504 37.1851 10.3657 37.5097 10.9493C37.8559 11.572 38.3806 11.8892 39.1049 11.8264C39.4603 11.7954 39.8131 11.7299 40.1653 11.6701C40.2168 11.6614 40.2983 11.5972 40.2989 11.5577C40.3074 10.9577 40.3048 10.3578 40.3048 9.74203Z" fill="white"/>
<path d="M88.0053 32.0239C87.4452 32.0239 86.868 32.0239 86.2705 32.0239C86.2518 31.7601 86.2337 31.5069 86.2173 31.2782C85.9941 31.486 85.7974 31.7331 85.5446 31.8929C84.5462 32.5236 83.2192 32.2366 82.4942 31.2596C81.5664 30.009 81.6084 27.934 82.5859 26.7261C83.2852 25.862 84.5739 25.554 85.4888 26.0571C85.7464 26.1988 85.9607 26.4176 86.2069 26.6104C86.2069 25.5374 86.2069 24.4559 86.2069 23.3613C86.8083 23.3613 87.3842 23.3613 88.0053 23.3613C88.0053 26.246 88.0053 29.1267 88.0053 32.0239ZM83.6332 29.0423C83.6865 29.3936 83.7158 29.7695 83.8045 30.131C83.9316 30.6489 84.2961 30.9532 84.7604 30.9912C85.3169 31.0367 85.692 30.8286 85.9314 30.3082C86.3116 29.4818 86.3074 28.6373 85.9746 27.8017C85.7548 27.2495 85.3404 26.9914 84.834 27.0298C84.2781 27.072 83.9285 27.3622 83.784 27.9639C83.7019 28.3063 83.6839 28.6638 83.6332 29.0423Z" fill="white"/>
<path d="M49.8296 13.999C50.4326 13.999 50.9891 13.999 51.5637 13.999C51.5637 15.0721 51.5637 16.1354 51.5637 17.218C51.6016 17.1983 51.6224 17.1941 51.6321 17.1816C52.3914 16.1968 53.5927 16.2462 54.4527 16.7745C55.0645 17.1504 55.4256 17.7201 55.6125 18.3915C55.9419 19.574 55.8373 20.7134 55.1433 21.7533C54.5167 22.6922 53.2739 22.9892 52.2924 22.4387C52.0666 22.3119 51.8956 22.0884 51.7026 21.9059C51.6599 21.8656 51.631 21.811 51.5649 21.7211C51.5488 21.973 51.5434 22.1764 51.518 22.3772C51.5113 22.4308 51.4443 22.5192 51.4036 22.5199C50.8738 22.5295 50.3439 22.5263 49.8296 22.5263C49.8296 19.6772 49.8296 16.8495 49.8296 13.999ZM54.0495 19.5598C54.0038 19.0819 53.992 18.6083 53.7721 18.1737C53.4075 17.4532 52.4261 17.3892 51.9687 18.0523C51.4317 18.8306 51.4297 20.281 51.9668 21.0576C52.1068 21.2602 52.2871 21.4132 52.5343 21.4764C53.1479 21.633 53.7062 21.3149 53.8756 20.6685C53.97 20.3083 53.9939 19.9299 54.0495 19.5598Z" fill="white"/>
<path d="M41.3941 25.9233C40.812 25.9233 40.2555 25.9233 39.6743 25.9233C39.6623 25.8051 39.6504 25.6857 39.6383 25.5664C39.5667 24.8657 39.137 24.3646 38.5111 24.2418C38.0645 24.1541 37.708 24.2903 37.4402 24.6509C37.1467 25.0462 37.014 25.5054 36.9278 25.9787C36.707 27.1924 36.7186 28.3997 37.0673 29.591C37.13 29.8052 37.2215 30.0173 37.335 30.21C37.767 30.9435 38.7047 31.012 39.2624 30.3618C39.4849 30.1027 39.5918 29.7969 39.6373 29.4663C39.6531 29.3517 39.6588 29.2357 39.6703 29.1076C40.2387 29.1076 40.8011 29.1076 41.3848 29.1076C41.3974 29.5727 41.3153 30.018 41.1535 30.4467C40.7539 31.5058 39.937 32.0282 38.842 32.1778C38.2749 32.2552 37.7127 32.2432 37.1717 32.0303C36.291 31.6838 35.7904 30.9924 35.4717 30.1504C35.087 29.1344 35.0067 28.0748 35.0595 27.0014C35.0984 26.2121 35.2249 25.4385 35.5378 24.7051C35.8482 23.9779 36.3078 23.3822 37.0526 23.0406C37.9969 22.6077 39.9024 22.7217 40.7474 23.8409C41.2096 24.4528 41.3702 25.1516 41.3941 25.9233Z" fill="white"/>
<path d="M65.9608 6.74984C66.5887 6.74984 67.1871 6.74984 67.8109 6.74984C67.8109 6.98773 67.8109 7.21519 67.8109 7.4773C67.8644 7.44117 67.8903 7.43221 67.9025 7.41428C68.5186 6.50753 69.878 6.31325 70.8982 6.87454C71.5519 7.23432 71.8842 7.77661 71.9074 8.5018C71.9332 9.30794 71.9364 10.115 71.943 10.9217C71.9484 11.5782 71.9444 12.2348 71.9436 12.8913C71.9436 12.9445 71.936 12.9977 71.9312 13.0615C71.3102 13.0615 70.6999 13.0615 70.0652 13.0615C70.0652 12.9354 70.0656 12.821 70.0652 12.7066C70.06 11.4962 70.0602 10.2857 70.0444 9.07553C70.0418 8.87496 69.9898 8.66865 69.9254 8.47664C69.8046 8.11739 69.546 7.89863 69.1619 7.83842C68.7592 7.77527 68.4266 7.89756 68.173 8.21547C67.8823 8.5798 67.8298 9.01171 67.8291 9.45525C67.8274 10.5701 67.8286 11.6849 67.8287 12.7997C67.8287 12.8805 67.8287 12.9613 67.8287 13.0617C67.7366 13.0662 67.6633 13.0729 67.5901 13.0732C67.1275 13.0741 66.6647 13.0645 66.2027 13.0781C66.0074 13.0839 65.946 13.0337 65.9468 12.8315C65.9546 10.8755 65.9514 8.91952 65.9519 6.96351C65.9514 6.89702 65.957 6.83052 65.9608 6.74984Z" fill="white"/>
<path d="M80.9428 29.3919C79.5994 29.3919 78.3104 29.3919 77.0078 29.3919C76.9794 29.7582 77.0073 30.1094 77.146 30.4414C77.3204 30.8591 77.7769 31.0387 78.3206 30.9336C78.6965 30.861 78.928 30.6378 79.0625 30.2935C79.0837 30.2391 79.1341 30.1897 79.1831 30.1545C79.2109 30.1346 79.2634 30.1474 79.3048 30.1474C79.7719 30.1472 80.2392 30.1473 80.7279 30.1473C80.6455 30.909 80.3573 31.531 79.663 31.8626C78.6261 32.3577 77.5539 32.3615 76.5022 31.9025C75.9603 31.666 75.6039 31.2189 75.4138 30.669C75.0383 29.5833 74.9992 28.4811 75.3914 27.3934C76.0469 25.5753 78.3886 24.9222 79.8813 26.1347C80.4852 26.6252 80.7575 27.3006 80.8516 28.0469C80.907 28.4844 80.9131 28.928 80.9428 29.3919ZM79.0603 28.1138C79.0367 27.6526 79.0179 27.2056 78.5829 26.9575C78.2066 26.743 77.7912 26.7358 77.427 26.9908C77.0436 27.2594 77.0239 27.685 76.9969 28.1138C77.6931 28.1138 78.3598 28.1138 79.0603 28.1138Z" fill="white"/>
<path d="M44.4573 29.3782C44.4397 29.7856 44.4612 30.1522 44.6278 30.4911C44.8172 30.8762 45.1644 30.9673 45.5647 30.9526C45.9977 30.9368 46.3295 30.7667 46.4844 30.3519C46.5447 30.1902 46.6247 30.1387 46.7942 30.1442C47.1802 30.1567 47.5669 30.1474 47.9533 30.1483C48.0202 30.1484 48.0872 30.1558 48.1789 30.1614C48.1298 30.6811 47.968 31.1316 47.6123 31.503C47.339 31.7883 47.0004 31.9673 46.6213 32.0693C45.9301 32.2551 45.2333 32.273 44.5345 32.1122C43.7025 31.9207 43.123 31.4266 42.8568 30.6273C42.4689 29.4623 42.4338 28.2835 42.9539 27.1476C43.4312 26.105 44.2759 25.574 45.4441 25.5628C45.9985 25.5574 46.5314 25.6366 47.018 25.9133C47.6905 26.2957 48.0687 26.9035 48.2209 27.6286C48.3392 28.1922 48.3617 28.7754 48.4301 29.378C47.0725 29.3782 45.779 29.3782 44.4573 29.3782ZM46.5156 28.1111C46.493 27.6647 46.4797 27.2211 46.0505 26.9667C45.6692 26.7407 45.2504 26.7342 44.8805 26.9917C44.4974 27.2585 44.48 27.6857 44.4513 28.1111C45.1494 28.1111 45.821 28.1111 46.5156 28.1111Z" fill="white"/>
<path d="M48.8673 13.0703C48.3783 13.0703 47.897 13.0734 47.4159 13.0643C47.378 13.0636 47.3157 12.9814 47.3092 12.9314C47.2818 12.7236 47.2716 12.5137 47.2517 12.2644C47.1601 12.3879 47.0926 12.4853 47.0186 12.5776C46.5219 13.1979 45.588 13.4332 44.7589 13.1487C44.029 12.8982 43.5831 12.2443 43.5791 11.4188C43.5732 10.1489 44.3608 9.26077 45.683 9.07412C46.1317 9.0107 46.5874 8.99531 47.0842 8.95424C47.0678 8.71273 47.0817 8.44353 47.0245 8.18998C46.9396 7.81333 46.6097 7.60876 46.2169 7.63552C45.8723 7.65906 45.5913 7.94553 45.5233 8.34438C45.5143 8.39763 45.5104 8.45182 45.5023 8.52126C44.95 8.52126 44.4027 8.52126 43.8552 8.52126C43.843 7.59043 44.3054 6.95782 45.2019 6.69799C45.815 6.5203 46.4433 6.5013 47.0655 6.62279C48.175 6.83955 48.789 7.60809 48.7975 8.77187C48.8057 9.90662 48.7948 11.0415 48.8022 12.1764C48.8041 12.4674 48.8435 12.7581 48.8673 13.0703ZM47.1072 10.11C46.624 10.0792 46.2061 10.0939 45.8113 10.2576C45.3622 10.4437 45.1833 10.8068 45.2702 11.3074C45.3328 11.667 45.6442 11.9551 46.0015 11.9838C46.4471 12.0197 46.7897 11.8064 46.9187 11.3274C47.0233 10.9389 47.0458 10.5285 47.1072 10.11Z" fill="white"/>
<path d="M45.9917 18.5522C45.9917 18.3385 46.0048 18.1399 45.989 17.9438C45.9542 17.5141 45.6751 17.2313 45.2741 17.1994C44.8894 17.1689 44.5855 17.4056 44.4741 17.8262C44.4533 17.9048 44.443 17.9863 44.4247 18.0841C43.8927 18.0841 43.3524 18.0841 42.7805 18.0841C42.7733 17.5679 42.9063 17.105 43.2855 16.7337C43.6334 16.3932 44.075 16.2405 44.5474 16.1723C45.0552 16.0988 45.5638 16.0911 46.0688 16.2061C47.0614 16.4321 47.6836 17.1367 47.7103 18.1514C47.7426 19.3747 47.726 20.5991 47.7377 21.8231C47.7402 22.0812 47.7731 22.3392 47.7949 22.6361C47.7073 22.6361 47.622 22.6361 47.5366 22.6361C47.1777 22.6361 46.8182 22.6235 46.4602 22.6412C46.2678 22.6507 46.2234 22.5737 46.2212 22.4081C46.219 22.2309 46.1967 22.0539 46.1787 21.819C46.1147 21.9122 46.0765 21.9675 46.0385 22.023C45.2573 23.1655 43.3199 23.0853 42.716 21.8852C42.1328 20.7268 42.7522 19.2224 43.984 18.7971C44.4984 18.6196 45.0302 18.5619 45.5703 18.5526C45.7006 18.5503 45.8311 18.5522 45.9917 18.5522ZM45.9931 19.664C45.5151 19.6525 45.069 19.6615 44.654 19.8642C44.2725 20.0506 44.1063 20.4322 44.1983 20.8863C44.2685 21.2327 44.5688 21.5154 44.9006 21.5474C45.3391 21.5897 45.649 21.3999 45.8201 20.9778C45.9883 20.5633 45.9876 20.127 45.9931 19.664Z" fill="white"/>
<path d="M41.3269 21.0303C41.3269 21.5473 41.3269 22.0242 41.3269 22.5147C39.5345 22.5147 37.7502 22.5147 35.9463 22.5147C35.9463 19.5624 35.9463 16.6068 35.9463 13.6392C36.5339 13.6392 37.1161 13.6392 37.7192 13.6392C37.7192 16.1013 37.7192 18.5531 37.7192 21.0303C38.9297 21.0303 40.1198 21.0303 41.3269 21.0303Z" fill="white"/>
<path d="M67.8088 32.0132C67.1725 32.0132 66.5737 32.0132 65.9542 32.0132C65.9542 30.3552 65.9542 28.6976 65.9542 27.0176C65.6423 27.0176 65.3496 27.0176 65.041 27.0176C65.041 26.5846 65.041 26.1737 65.041 25.744C65.3397 25.744 65.6269 25.744 65.9236 25.744C65.9429 25.4148 65.951 25.1027 65.9812 24.7928C66.0762 23.823 66.5713 23.3549 67.5489 23.2243C68.2036 23.1369 68.8242 23.2574 69.4481 23.4096C69.5608 23.437 69.6741 23.4619 69.8079 23.4928C69.7092 23.8708 69.6134 24.2375 69.5166 24.6084C69.262 24.5554 69.0241 24.4881 68.7814 24.4591C68.1627 24.3848 67.8553 24.6411 67.8101 25.2544C67.799 25.4037 67.8085 25.5544 67.8085 25.7345C68.1688 25.7345 68.5295 25.7345 68.9043 25.7345C68.9043 26.1698 68.9043 26.5754 68.9043 27.0001C68.544 27.0001 68.1884 27.0001 67.8085 27.0001C67.8088 28.6752 67.8088 30.3318 67.8088 32.0132Z" fill="white"/>
<path d="M57.0669 20.734C57.5689 20.734 58.0557 20.734 58.5433 20.734C58.7893 21.3513 59.1464 21.5644 59.7163 21.4318C59.9929 21.3675 60.1616 21.1989 60.2139 20.9199C60.263 20.658 60.1617 20.444 59.9343 20.3344C59.621 20.1832 59.287 20.073 58.959 19.9532C58.6813 19.852 58.3951 19.7727 58.1199 19.6656C56.895 19.1884 56.7786 17.3582 57.8371 16.6567C58.7187 16.0725 59.6624 15.9919 60.6366 16.374C61.2681 16.6218 61.6577 17.2841 61.6305 17.9816C61.1598 17.9816 60.6879 17.9816 60.2488 17.9816C60.137 17.8209 60.0621 17.638 59.9257 17.5338C59.6662 17.3355 59.3521 17.3455 59.0589 17.4639C58.7619 17.5839 58.7076 18.0605 58.9773 18.2557C59.1567 18.3855 59.3757 18.4674 59.586 18.5477C60.0032 18.7069 60.4362 18.8284 60.8458 19.0042C62.1712 19.5733 62.2101 21.2808 61.2262 22.0781C60.306 22.8238 58.7603 22.9234 57.8 22.2492C57.2816 21.8856 57.0708 21.3655 57.0669 20.734Z" fill="white"/>
<path d="M58.6021 27.0084C58.1762 27.0084 57.7645 27.0084 57.341 27.0084C57.3351 27.0605 57.3272 27.0992 57.3272 27.1379C57.3276 28.1154 57.3274 29.0931 57.3318 30.0706C57.3323 30.2066 57.3488 30.3434 57.3692 30.4783C57.4266 30.8582 57.7312 31.0349 58.1652 30.9331C58.3792 30.8828 58.589 30.8133 58.7996 30.7492C58.9292 30.7099 58.9971 30.7355 59.0319 30.8832C59.1069 31.2011 59.2044 31.5139 59.2991 31.8515C59.1028 32.0332 58.8395 32.1153 58.5711 32.1697C57.9756 32.2899 57.379 32.2708 56.7856 32.1412C56.1378 31.9996 55.7662 31.5995 55.6704 30.9541C55.6343 30.7115 55.6119 30.4649 55.6103 30.2199C55.6037 29.2356 55.6076 28.2511 55.6076 27.2666C55.6076 27.1863 55.6076 27.106 55.6076 27.0113C55.2113 27.0113 54.8403 27.0113 54.458 27.0113C54.458 26.5896 54.458 26.1822 54.458 25.7476C54.8344 25.7476 55.2086 25.7476 55.6042 25.7476C55.6042 25.2457 55.6042 24.7703 55.6042 24.3032C56.1683 24.3032 56.7101 24.3032 57.2958 24.3032C57.2958 24.7896 57.2958 25.2498 57.2958 25.7357C57.7552 25.7357 58.1711 25.7357 58.6022 25.7357C58.6021 26.1676 58.6021 26.5737 58.6021 27.0084Z" fill="white"/>
<path d="M49.8844 25.7526C50.4019 25.7526 50.9512 25.7526 51.5276 25.7526C51.5441 26.1124 51.5604 26.4675 51.5778 26.844C52.0694 25.8143 52.9128 25.6307 53.7038 25.6854C53.7038 26.228 53.7038 26.7715 53.7038 27.342C53.5019 27.342 53.3111 27.3409 53.1201 27.3421C52.2616 27.3475 51.8115 27.7554 51.7799 28.6104C51.7499 29.4232 51.7603 30.2377 51.7543 31.0514C51.752 31.3654 51.7539 31.6796 51.7539 32.0078C51.14 32.0078 50.5375 32.0078 49.8843 32.0078C49.8844 29.9246 49.8844 27.8443 49.8844 25.7526Z" fill="white"/>
<path d="M63.58 6.73826C63.58 8.86245 63.58 10.9513 63.58 13.057C63.0099 13.057 62.4483 13.057 61.86 13.057C61.8564 12.9892 61.8492 12.9178 61.8492 12.8463C61.8489 10.8854 61.8518 8.9244 61.8457 6.96344C61.8452 6.78482 61.8883 6.72863 62.0748 6.73371C62.5693 6.74722 63.0646 6.73826 63.58 6.73826Z" fill="white"/>
<path d="M62.8674 32.1893C62.2829 32.1893 61.7192 32.1893 61.1465 32.1893C61.1465 30.0873 61.1465 27.9972 61.1465 25.8926C61.7209 25.8926 62.2889 25.8926 62.8674 25.8926C62.8674 27.9954 62.8674 30.085 62.8674 32.1893Z" fill="white"/>
<path d="M72.9903 32.1895C72.4099 32.1895 71.8532 32.1895 71.2845 32.1895C71.2786 32.1287 71.269 32.0761 71.269 32.0234C71.2685 30.055 71.2709 28.0865 71.2656 26.1181C71.2651 25.9365 71.3076 25.868 71.5051 25.8739C71.9938 25.8882 72.4832 25.8786 72.9903 25.8786C72.9903 27.986 72.9903 30.079 72.9903 32.1895Z" fill="white"/>
<path d="M73.0545 24.7419C72.4696 24.7419 71.8928 24.7441 71.3163 24.7368C71.2812 24.7364 71.2175 24.6633 71.2168 24.6233C71.2099 24.1267 71.2123 23.6301 71.2123 23.1211C71.8341 23.1211 72.4367 23.1211 73.0545 23.1211C73.0545 23.6539 73.0545 24.1873 73.0545 24.7419Z" fill="white"/>
<path d="M61.083 24.7247C61.083 24.1883 61.083 23.6584 61.083 23.1182C61.6891 23.1182 62.2927 23.1182 62.9115 23.1182C62.9115 23.6495 62.9115 24.1777 62.9115 24.7247C62.3052 24.7247 61.6986 24.7247 61.083 24.7247Z" fill="white"/>
<path d="M63.6577 3.98975C63.6577 4.49684 63.6605 4.9935 63.6519 5.4899C63.6512 5.52763 63.5691 5.59573 63.5241 5.59627C62.9596 5.60363 62.3949 5.60108 61.8154 5.60108C61.8154 5.06415 61.8154 4.53565 61.8154 3.98975C62.4205 3.98975 63.0275 3.98975 63.6577 3.98975Z" fill="white"/>
<path d="M81.8922 7.64407C81.8888 8.25152 81.3928 8.73239 80.7798 8.72262C80.1781 8.71299 79.6955 8.22195 79.7037 7.62775C79.712 7.02766 80.1984 6.55776 80.8067 6.56204C81.4121 6.56632 81.8956 7.04827 81.8922 7.64407ZM80.8005 6.71671C80.3008 6.71297 79.8825 7.12052 79.8702 7.6232C79.8579 8.12374 80.2821 8.56273 80.7848 8.56996C81.2915 8.57718 81.7154 8.16027 81.7216 7.64875C81.728 7.13791 81.3154 6.72046 80.8005 6.71671Z" fill="white"/>
<path d="M81.2055 7.69049C81.2392 7.86041 81.2762 8.04612 81.3131 8.2317C81.2965 8.24776 81.28 8.26381 81.2634 8.27987C81.217 8.24147 81.1493 8.2119 81.1281 8.1628C81.0769 8.04372 81.0835 7.85198 81.0006 7.80542C80.8707 7.7325 80.6862 7.75511 80.4912 7.73357C80.4912 7.8873 80.4982 8.00826 80.4878 8.12787C80.4836 8.17591 80.4412 8.22073 80.4162 8.26703C80.3865 8.22394 80.332 8.18139 80.3309 8.13751C80.3233 7.80997 80.322 7.48203 80.331 7.15462C80.3322 7.1106 80.4003 7.03394 80.4413 7.03126C80.6126 7.02029 80.7863 7.02082 80.957 7.03835C81.1024 7.05334 81.2658 7.09589 81.2777 7.27076C81.2866 7.40335 81.2337 7.5401 81.2055 7.69049ZM80.509 7.19088C80.509 7.32348 80.509 7.45326 80.509 7.59041C80.6572 7.59041 80.7991 7.61382 80.9269 7.58184C81.0064 7.56191 81.1138 7.46089 81.1176 7.39131C81.1209 7.32789 81.0117 7.21898 80.9343 7.19958C80.8059 7.16747 80.6632 7.19088 80.509 7.19088Z" fill="white"/>
</g>
</svg>
