<svg width="25" height="24" viewBox="0 0 25 24" fill="none" xmlns="http://www.w3.org/2000/svg">
<path d="M19.9571 8.15962C19.836 8.25412 17.6976 9.46595 17.6976 12.1605C17.6976 15.2772 20.4186 16.3798 20.5 16.4071C20.4875 16.4743 20.0677 17.9172 19.0654 19.3873C18.1717 20.6811 17.2382 21.9727 15.8183 21.9727C14.3983 21.9727 14.0329 21.1431 12.3936 21.1431C10.7962 21.1431 10.2282 22 8.92931 22C7.63045 22 6.72417 20.8029 5.68216 19.3327C4.47519 17.6064 3.5 14.9244 3.5 12.3789C3.5 8.29613 6.13948 6.13081 8.73719 6.13081C10.1175 6.13081 11.2681 7.0423 12.1347 7.0423C12.9595 7.0423 14.2459 6.07621 15.8162 6.07621C16.4113 6.07621 18.5496 6.13081 19.9571 8.15962ZM15.0707 4.34773C15.7201 3.57276 16.1795 2.49745 16.1795 1.42214C16.1795 1.27303 16.167 1.12181 16.1398 1C15.0832 1.0399 13.8261 1.70777 13.0681 2.59196C12.473 3.27243 11.9175 4.34773 11.9175 5.43774C11.9175 5.60156 11.9447 5.76538 11.9572 5.81788C12.024 5.83048 12.1326 5.84518 12.2412 5.84518C13.1892 5.84518 14.3816 5.20672 15.0707 4.34773Z" fill="white"/>
</svg>
