<svg width="80" height="23" viewBox="0 0 80 23" fill="none" xmlns="http://www.w3.org/2000/svg">
<path fill-rule="evenodd" clip-rule="evenodd" d="M11.2708 0C5.04665 0 0 5.04663 0 11.2708C0 17.495 5.04665 22.5416 11.2708 22.5416C17.4951 22.5416 22.5417 17.495 22.5417 11.2708C22.5287 5.04663 17.4951 0 11.2708 0ZM11.4391 11.6331L10.2745 15.5928H16.5374C16.7575 15.5928 16.8997 15.7998 16.8481 16.0069L16.3046 17.8832C16.2527 18.0643 16.0845 18.1938 15.8904 18.1938H6.31475L7.93227 12.7201L6.14656 13.2765L6.53476 11.9825L8.33349 11.4261L10.6109 3.73968C10.6627 3.55852 10.8309 3.42912 11.025 3.42912H13.4448C13.6647 3.42912 13.8071 3.63616 13.7553 3.84321L11.8273 10.3391L13.613 9.7827L13.2248 11.0896L11.4391 11.6331Z" fill="#345D9D"/>
<path d="M11.4391 11.6331L10.2745 15.5928H16.5374C16.7575 15.5928 16.8997 15.7998 16.8481 16.0069L16.3046 17.8832C16.2527 18.0643 16.0845 18.1938 15.8904 18.1938H6.31475L7.93227 12.7201L6.14656 13.2765L6.53476 11.9825L8.33349 11.4261L10.6109 3.73968C10.6627 3.55852 10.8309 3.42912 11.025 3.42912H13.4448C13.6647 3.42912 13.8071 3.63616 13.7553 3.84321L11.8273 10.3391L13.613 9.7827L13.2248 11.0896L11.4391 11.6331Z" fill="white"/>
<path d="M29.0507 3.41614H28.3518C28.2224 3.41614 28.1318 3.49379 28.1059 3.62319L26.2943 17.9737C26.2814 18.1161 26.3202 18.1808 26.4626 18.1808H27.1613C27.3037 18.1808 27.3813 18.1161 27.4072 17.9737L29.2317 3.62319C29.2705 3.48084 29.1929 3.41614 29.0507 3.41614Z" fill="white"/>
<path d="M32.014 7.55697H32.7127C32.8551 7.55697 32.9068 7.63461 32.8939 7.77695L31.6128 17.9867C31.5869 18.129 31.4964 18.1937 31.367 18.1937H30.6682C30.5388 18.1937 30.4612 18.129 30.4741 17.9867L31.7681 7.76401C31.794 7.62167 31.8846 7.55697 32.014 7.55697Z" fill="white"/>
<path fill-rule="evenodd" clip-rule="evenodd" d="M63.329 7.38875C62.3584 7.38875 61.5173 7.66049 60.8056 8.21691C60.0939 8.77334 59.6281 9.49798 59.3952 10.4038C59.2011 11.1414 59.0328 12.1766 58.9552 12.8753L58.9368 13.0436L58.9364 13.0465C58.841 13.9147 58.7611 14.6422 58.7611 15.3469C58.774 16.2656 59.0717 16.9903 59.6281 17.5467C60.1974 18.0902 60.9738 18.3749 61.9574 18.3749C62.9148 18.3749 63.756 18.1031 64.4677 17.5467C65.1794 17.0032 65.6453 16.2656 65.8782 15.3469C66.0335 14.7387 66.1888 13.9235 66.3182 12.8753C66.4476 11.7884 66.5123 10.9602 66.5123 10.3908C66.5123 9.48504 66.2276 8.7604 65.6582 8.21691C65.0759 7.66049 64.2995 7.38875 63.329 7.38875ZM65.2959 11.879C65.2312 12.3966 65.1924 12.733 65.1794 12.8753C65.05 13.9364 64.9336 14.687 64.8301 15.1399C64.6748 15.8127 64.3383 16.3562 63.8337 16.7703C63.329 17.1844 62.7338 17.3785 62.0737 17.3785C61.401 17.3785 60.8703 17.1715 60.4692 16.7703C60.068 16.3692 59.8739 15.8386 59.8739 15.1787C59.8739 14.8293 59.9128 14.3893 59.9775 13.8717C60.0422 13.3541 60.081 13.0177 60.0939 12.8753C60.2233 11.866 60.3398 11.1155 60.4433 10.6108C60.5986 9.93795 60.935 9.39446 61.4397 8.98038C61.9443 8.5663 62.5397 8.3722 63.1996 8.3722C63.8725 8.3722 64.403 8.57924 64.8042 8.96744C65.2053 9.36858 65.3994 9.89912 65.3994 10.5591C65.3994 10.9343 65.3606 11.3614 65.2959 11.879Z" fill="white"/>
<path d="M69.812 7.55697H70.4978C70.6403 7.55697 70.6919 7.63461 70.6791 7.77695L69.3979 17.9867C69.372 18.129 69.2815 18.1937 69.1521 18.1937H68.4533C68.3239 18.1937 68.2463 18.129 68.2592 17.9867L69.5661 7.76401C69.592 7.63461 69.6826 7.55697 69.812 7.55697Z" fill="white"/>
<path d="M79.323 8.16515C78.8442 7.66049 78.1713 7.41463 77.2914 7.41463C76.722 7.41463 76.2044 7.51815 75.7257 7.73813C75.2469 7.95811 74.8457 8.28162 74.5093 8.72158C74.4446 8.77334 74.4187 8.7604 74.4187 8.68276L74.5222 7.77695C74.5352 7.64755 74.4834 7.56991 74.354 7.56991H73.6553C73.5259 7.56991 73.4353 7.64755 73.4094 7.77695L72.1282 17.9867C72.1154 18.1161 72.1541 18.1937 72.2966 18.1937H72.9953C73.1247 18.1937 73.2153 18.1161 73.2281 17.9867L74.1599 10.6626C74.3152 9.97677 74.6387 9.42034 75.1175 9.0192C75.5963 8.61806 76.1656 8.41102 76.8385 8.41102C77.4596 8.41102 77.9513 8.60512 78.3137 8.99332C78.676 9.38152 78.8571 9.89912 78.8571 10.5591C78.8571 10.7532 78.8442 10.9085 78.8313 11.0249L77.9384 17.9867C77.9384 18.0514 77.9384 18.0902 77.9643 18.129C78.0031 18.1678 78.0549 18.1937 78.1325 18.1937H78.8313C78.9607 18.1937 79.0512 18.129 79.0642 17.9867L79.957 10.8567C79.9829 10.572 79.9959 10.365 79.9959 10.2226C80.0347 9.3427 79.8018 8.65688 79.323 8.16515Z" fill="white"/>
<path d="M32.014 3.79141C32.221 3.36439 32.7515 3.2091 33.1656 3.42909C33.5926 3.64907 33.7479 4.16667 33.528 4.59369C33.308 5.00778 32.7904 5.176 32.3763 4.95601C31.9622 4.73603 31.794 4.20549 32.014 3.79141Z" fill="white"/>
<path d="M71.0025 3.42909C70.5886 3.2091 70.0579 3.36439 69.851 3.79141C69.6309 4.20549 69.7991 4.73603 70.2133 4.95601C70.6274 5.176 71.1579 5.00778 71.3779 4.59369C71.5849 4.16667 71.4167 3.64907 71.0025 3.42909Z" fill="white"/>
<path d="M51.6959 8.21691C52.4076 7.67343 53.2487 7.38875 54.2192 7.38875C55.2027 7.38875 55.9661 7.66049 56.5484 8.19103C57.1178 8.73452 57.4025 9.45916 57.4025 10.365V10.6108C57.4025 10.6885 57.3378 10.7402 57.2731 10.7402H56.4578C56.3673 10.7402 56.2896 10.6626 56.2896 10.572V10.5591C56.2896 9.89912 56.0955 9.36858 55.6944 8.96744C55.2932 8.5663 54.7498 8.3722 54.0898 8.3722C53.4299 8.3722 52.8346 8.5663 52.33 8.98038C51.8253 9.39446 51.4889 9.93795 51.3336 10.6108C51.2301 11.1155 51.1136 11.866 50.9842 12.8753C50.9756 12.9696 50.95 13.1828 50.9187 13.4438C50.9028 13.5771 50.8852 13.723 50.8678 13.8717C50.8031 14.3893 50.7642 14.8293 50.7642 15.1787C50.7642 15.8386 50.9583 16.3692 51.3595 16.7703C51.7606 17.1715 52.2912 17.3785 52.964 17.3785C53.624 17.3785 54.2192 17.1844 54.7239 16.7703C55.2285 16.3562 55.565 15.8127 55.7203 15.1399C55.7203 15.1399 55.7332 15.114 55.7332 15.101C55.7461 15.0234 55.8108 14.9975 55.8626 14.9975H56.7296C56.7813 14.9975 56.8331 15.0493 56.8202 15.114C56.818 15.1272 56.8154 15.1405 56.8127 15.1537C56.8096 15.1677 56.8063 15.1817 56.8029 15.1957L56.7943 15.2299L56.7854 15.2665C56.7788 15.2933 56.7728 15.3201 56.7684 15.3469C56.5355 16.2656 56.0696 17.0032 55.3579 17.5467C54.6462 18.1031 53.8051 18.3749 52.8476 18.3749C51.8641 18.3749 51.0877 18.0902 50.5184 17.5467C49.962 16.9903 49.6642 16.2656 49.6514 15.3469C49.6514 14.6435 49.7425 13.8151 49.8285 13.0321V13.0295L49.8455 12.8753C49.9102 12.306 50.0914 11.1414 50.2855 10.4038C50.5184 9.49798 50.9842 8.77334 51.6959 8.21691Z" fill="white"/>
<path fill-rule="evenodd" clip-rule="evenodd" d="M47.1927 8.21691C46.6233 7.67343 45.8469 7.38875 44.8764 7.38875C43.9059 7.38875 43.0648 7.66049 42.3531 8.21691C41.6414 8.77334 41.1756 9.49798 40.9427 10.4038C40.7584 11.104 40.6673 11.7343 40.5258 12.7154L40.5027 12.8753C40.3604 13.9364 40.3086 14.5964 40.3086 15.3469C40.3215 16.2656 40.6192 16.9903 41.1756 17.5467C41.7449 18.0902 42.5213 18.3749 43.5048 18.3749C44.4623 18.3749 45.3034 18.1031 46.0151 17.5467C46.7268 17.0032 47.1927 16.2656 47.4256 15.3469C47.4321 15.3079 47.4418 15.2689 47.4515 15.2299C47.4571 15.208 47.4627 15.186 47.4676 15.1641C47.4712 15.1474 47.4747 15.1307 47.4774 15.114C47.4903 15.0493 47.4515 14.9975 47.3868 14.9975H46.5198C46.468 14.9975 46.4033 15.0234 46.3904 15.101C46.3904 15.114 46.3775 15.1399 46.3775 15.1399C46.2222 15.8127 45.8857 16.3562 45.3811 16.7703C44.8764 17.1844 44.2812 17.3785 43.6212 17.3785C42.9484 17.3785 42.4178 17.1715 42.0167 16.7703C41.6155 16.3692 41.4214 15.8386 41.4214 15.1787C41.4214 14.8681 41.4473 14.4799 41.4991 14.04L47.7879 12.086C47.9173 12.0472 47.9691 11.9825 47.995 11.8272C48.0338 11.5037 48.0597 10.9473 48.0597 10.3779C48.0467 9.56268 47.762 8.7604 47.1927 8.21691ZM46.9468 11.1543C46.9468 11.219 46.908 11.2708 46.8433 11.2837L41.6285 12.9012V12.8753C41.7579 11.866 41.8743 11.1155 41.9779 10.6108C42.1331 9.93795 42.4696 9.39446 42.9742 8.98038C43.4789 8.5663 44.0741 8.3722 44.7341 8.3722C45.407 8.3722 45.9375 8.57924 46.3386 8.96744C46.9727 9.62739 46.9856 10.3003 46.9468 11.1543Z" fill="white"/>
<path d="M38.1604 17.2362C38.1863 17.0938 38.044 17.0032 37.9146 17.0679C37.4746 17.275 36.6206 17.482 36.1806 17.1197C35.861 16.8123 35.9269 16.2597 36.0007 15.6393L36.0124 15.541L36.7759 9.39446H38.9499C39.0015 9.39446 39.0792 9.38152 39.118 9.3427C39.1568 9.29094 39.1699 9.25212 39.1827 9.17448L39.2474 8.68276C39.2474 8.55336 39.1956 8.47572 39.0662 8.47572H36.8794L37.2805 5.08542C37.3064 4.96896 37.2676 4.87838 37.1123 4.87838H36.4394C36.2971 4.87838 36.2065 4.94308 36.1936 5.08542L35.883 7.46639L35.7536 8.54042L34.8349 16.0327C34.7184 17.0162 34.9254 17.8055 35.7277 18.1678C36.4265 18.4784 37.2935 18.3749 37.9146 18.142C37.9922 18.1031 38.0569 18.0255 38.0699 17.9349L38.1604 17.2362Z" fill="white"/>
</svg>
