<svg width="293" height="329" viewBox="0 0 293 329" fill="none" xmlns="http://www.w3.org/2000/svg">
<g filter="url(#filter0_i_3497_90617)">
<path fill-rule="evenodd" clip-rule="evenodd" d="M17.2608 257.02C20.8608 256.754 24.3608 256.354 27.7608 255.82C31.1608 255.22 34.5941 254.387 38.0608 253.32C38.2608 253.254 38.5608 253.22 38.9608 253.22C40.0275 253.22 40.7275 253.787 41.0608 254.92C41.1941 255.654 41.0941 256.387 40.7608 257.12C40.4941 257.854 40.0608 258.454 39.4608 258.92C35.8608 261.387 31.9608 263.554 27.7608 265.42C23.6275 267.354 19.3941 268.787 15.0608 269.72C14.8608 269.787 14.5608 269.82 14.1608 269.82C13.2275 269.82 12.4941 269.52 11.9608 268.92C11.3608 268.32 11.0608 267.52 11.0608 266.52L10.9608 263.72C10.8941 261.72 11.4275 260.154 12.5608 259.02C13.6941 257.82 15.2608 257.154 17.2608 257.02ZM23.3608 191.62C24.8941 192.354 25.1941 193.42 24.2608 194.82L20.2608 201.42C19.7941 202.154 19.2275 203.087 18.5608 204.22C17.9608 205.42 17.3275 206.687 16.6608 208.02C16.0608 209.354 15.5275 210.654 15.0608 211.92C14.5941 213.187 14.3608 214.254 14.3608 215.12C14.3608 217.054 14.9941 218.287 16.2608 218.82C17.4608 219.42 18.8941 219.72 20.5608 219.72C22.2941 217.187 23.9608 214.854 25.5608 212.72C26.3608 211.654 27.1608 210.487 27.9608 209.22C28.8941 208.02 29.9941 207.42 31.2608 207.42C32.1941 207.42 33.0275 207.687 33.7608 208.22L38.9608 211.82C39.4275 212.087 39.6941 212.42 39.7608 212.82C39.8274 213.287 39.6608 213.72 39.2608 214.12L33.0608 220.72L30.8608 223.52C28.9941 225.654 27.2941 227.787 25.7608 229.92C24.0941 232.254 23.2275 234.787 23.1608 237.52C23.0941 238.92 23.5275 239.954 24.4608 240.62C25.7275 241.22 27.1275 241.654 28.6608 241.92C30.1941 242.187 31.6275 242.32 32.9608 242.32C33.4275 242.32 33.9275 242.32 34.4608 242.32C34.9275 242.32 35.4275 242.287 35.9608 242.22C36.6275 242.22 37.2275 242.387 37.7608 242.72C38.2275 243.054 38.5275 243.587 38.6608 244.32V244.52C38.6608 246.187 37.9275 247.12 36.4608 247.32C34.1275 247.787 31.7941 248.02 29.4608 248.02L25.7608 247.82C24.0275 247.687 22.8608 247.52 22.2608 247.32C20.2608 246.92 18.4608 246.254 16.8608 245.32C15.3275 244.32 14.2275 242.787 13.5608 240.72C13.1608 239.187 13.0608 237.754 13.2608 236.42L13.7608 233.92C13.8941 233.054 14.0941 232.254 14.3608 231.52C14.6275 230.72 14.9608 229.954 15.3608 229.22L17.1608 225.52L15.7608 225.42H14.7608C11.8275 225.22 9.46079 224.354 7.66079 222.82C5.79413 221.354 4.86079 219.054 4.86079 215.92C4.79412 215.454 4.79412 214.987 4.86079 214.52C4.86079 213.987 4.89413 213.42 4.9608 212.82C5.42746 209.22 6.2608 205.654 7.4608 202.12C8.59413 198.52 9.92746 195.12 11.4608 191.92C12.5275 189.72 14.1608 188.62 16.3608 188.62C17.4275 188.62 18.4608 188.887 19.4608 189.42L23.3608 191.62ZM63.7608 196.32C63.2941 197.987 62.7608 199.62 62.1608 201.22C61.5608 202.82 60.8941 204.42 60.1608 206.02C66.4274 204.62 72.6941 204.087 78.9608 204.42L82.7608 204.82C85.3608 205.087 87.6608 205.554 89.6608 206.22C91.6608 206.82 93.3941 207.687 94.8608 208.82C96.3275 209.954 97.5608 211.387 98.5608 213.12C99.5608 214.854 100.461 216.987 101.261 219.52C101.927 221.72 102.394 223.92 102.661 226.12L103.061 232.92C103.127 235.52 103.094 238.254 102.961 241.12C102.894 242.587 102.794 244.087 102.661 245.62C102.594 247.154 102.461 248.687 102.261 250.22L100.561 264.42C100.361 265.887 99.7608 267.054 98.7608 267.92C97.8275 268.72 96.6274 269.02 95.1608 268.82L90.6608 268.62C89.1274 268.42 87.9608 267.854 87.1608 266.92C86.3608 265.987 86.0941 264.754 86.3608 263.22L87.8608 249.92C87.9941 248.654 88.1275 247.454 88.2608 246.32C88.3275 245.187 88.3608 244.087 88.3608 243.02L88.6608 237.12C88.6608 235.587 88.5275 233.854 88.2608 231.92C88.0608 229.987 87.6941 228.087 87.1608 226.22C86.6274 224.42 85.8608 222.687 84.8608 221.02C83.9275 219.354 82.7275 218.087 81.2608 217.22C79.7275 216.287 78.1608 215.587 76.5608 215.12C74.9608 214.654 73.2941 214.287 71.5608 214.02L66.9608 213.52C63.1608 213.32 59.6941 213.52 56.5608 214.12C55.4275 216.387 54.2941 218.587 53.1608 220.72C52.0274 222.854 50.7608 224.954 49.3608 227.02C48.3608 228.354 47.0275 228.987 45.3608 228.92C44.7608 228.92 44.1608 228.754 43.5608 228.42C42.4941 227.954 41.7608 227.254 41.3608 226.32C40.9608 225.454 40.9941 224.487 41.4608 223.42C42.9275 219.954 44.1275 216.187 45.0608 212.12C46.1941 206.72 47.2608 201.587 48.2608 196.72L48.9608 192.02L49.0608 190.22C49.2608 189.154 49.7608 188.654 50.5608 188.72C50.6275 188.72 50.6941 188.754 50.7608 188.82C50.8274 188.82 50.8941 188.82 50.9608 188.82L61.3608 191.92C62.3608 192.254 63.0941 192.82 63.5608 193.62C63.9608 194.42 64.0275 195.32 63.7608 196.32ZM70.3608 232.32C72.3463 233.184 73.3941 234.754 73.8608 236.62C74.3941 238.487 74.4941 240.487 74.1608 242.62C73.7608 244.687 73.1275 246.72 72.2608 248.72C71.3275 250.72 70.3275 252.387 69.2608 253.72C67.6608 253.32 65.7941 252.62 63.6608 251.62C61.5941 250.687 59.6941 249.587 57.9608 248.32C56.2275 246.987 54.9941 245.554 54.2608 244.02C53.4608 242.487 53.5608 240.887 54.5608 239.22C55.5608 237.687 56.8608 236.754 58.4608 236.42C60.0608 236.154 61.5275 236.62 62.8608 237.82C62.7275 236.887 62.8941 235.987 63.3608 235.12C63.8275 234.254 64.4608 233.52 65.2608 232.92C65.9941 232.387 66.7623 231.915 67.8608 231.82C68.8528 231.735 69.4478 231.923 70.3608 232.32ZM138.561 197.42C139.294 196.287 140.527 195.654 142.261 195.52C146.927 195.254 149.861 195.687 151.061 196.82C152.261 197.954 152.961 199.52 153.161 201.52C153.294 202.454 153.361 203.52 153.361 204.72C153.361 205.854 153.394 207.054 153.461 208.32L162.061 209.72C162.927 209.854 163.627 210.254 164.161 210.92C164.694 211.587 164.927 212.354 164.861 213.22C164.727 214.554 164.261 215.354 163.461 215.62C162.594 215.82 161.627 215.92 160.561 215.92H158.761L153.361 216.12L152.961 225.52L152.461 236.12L157.861 234.12C158.261 233.987 159.327 233.754 161.061 233.42C162.794 233.087 163.861 234.687 164.261 238.22C164.727 241.687 164.694 243.787 164.161 244.52C163.694 245.187 162.994 245.587 162.061 245.72L158.961 246.22C157.827 246.354 156.627 246.52 155.361 246.72C154.094 246.854 152.761 246.954 151.361 247.02C151.227 248.354 151.094 249.687 150.961 251.02C150.894 252.354 150.761 253.654 150.561 254.92L150.061 259.72C149.861 260.654 149.461 261.42 148.861 262.02C148.261 262.62 147.494 262.92 146.561 262.92L146.361 263.12C144.494 263.12 143.561 262.187 143.561 260.32V257.32L143.261 247.32L134.861 247.22C133.794 247.22 132.727 247.22 131.661 247.22C130.594 247.154 129.461 247.087 128.261 247.02C127.394 246.954 126.661 246.62 126.061 246.02C125.527 245.487 125.261 244.787 125.261 243.92C125.061 241.987 125.927 240.92 127.861 240.72C129.194 240.587 130.427 240.42 131.561 240.22C132.694 240.087 133.794 239.954 134.861 239.82L142.561 238.62C142.361 235.02 142.061 231.454 141.661 227.92C141.327 224.387 140.961 220.82 140.561 217.22C136.827 217.754 133.061 218.554 129.261 219.62C128.994 219.687 128.594 219.72 128.061 219.72C126.394 219.72 125.494 218.687 125.361 216.62L125.261 210.52C125.261 209.52 125.527 208.72 126.061 208.12C126.661 207.52 127.461 207.187 128.461 207.12L131.561 206.82C132.261 206.82 136.061 206.82 136.761 206.82C137.494 206.82 138.294 206.887 139.161 207.02C138.827 204.954 138.461 203.12 138.061 201.52C137.661 199.854 137.827 198.487 138.561 197.42ZM185.661 195.32C185.861 197.654 185.994 200.154 186.061 202.82C186.127 205.687 186.127 208.554 186.061 211.42C186.061 214.287 186.027 217.154 185.961 220.02L185.661 228.82C185.461 234.887 185.127 241.02 184.661 247.22C184.194 253.354 183.394 259.42 182.261 265.42C182.127 266.62 181.594 267.52 180.661 268.12C179.794 268.654 178.794 268.92 177.661 268.92H177.561C176.361 268.854 175.394 268.42 174.661 267.62C173.994 266.887 173.727 265.954 173.861 264.82C173.994 262.62 174.127 260.354 174.261 258.02C174.327 255.687 174.394 253.287 174.461 250.82C174.461 241.687 174.127 232.587 173.461 223.52C172.794 214.454 171.827 205.42 170.561 196.42C170.227 194.02 170.694 192.087 171.961 190.62C173.161 189.154 174.961 188.32 177.361 188.12H177.661C179.927 188.12 181.794 188.72 183.261 189.92C184.727 191.054 185.527 192.854 185.661 195.32ZM204.911 217.97C206.707 218.78 207.594 220.187 208.061 221.92C208.527 223.654 208.594 225.487 208.261 227.42C207.927 229.287 207.327 231.154 206.461 233.02C205.594 234.887 204.661 236.42 203.661 237.62C202.261 237.22 200.561 236.587 198.561 235.72C196.627 234.854 194.894 233.82 193.361 232.62C191.761 231.42 190.594 230.12 189.861 228.72C189.127 227.32 189.227 225.854 190.161 224.32C191.094 222.854 192.294 221.987 193.761 221.72C195.294 221.454 196.661 221.887 197.861 223.02C197.794 222.22 197.961 221.42 198.361 220.62C198.761 219.754 199.327 219.054 200.061 218.52C200.727 217.987 201.494 217.654 202.361 217.52C203.227 217.32 204.003 217.56 204.911 217.97ZM277.261 197.32C274.594 197.854 271.861 198.22 269.061 198.42C266.261 198.62 263.527 198.787 260.861 198.92C260.794 200.854 260.561 202.72 260.161 204.52L258.961 209.82C261.961 209.82 265.061 210.087 268.261 210.62C271.394 211.087 274.294 212.02 276.961 213.42C279.627 214.754 281.794 216.62 283.461 219.02C285.194 221.42 286.061 224.454 286.061 228.12C286.061 231.587 285.461 234.554 284.261 237.02C282.994 239.42 281.361 241.354 279.361 242.82C277.294 244.287 274.861 245.354 272.061 246.02C269.327 246.687 266.427 247.02 263.361 247.02C259.694 247.02 256.027 246.654 252.361 245.92C248.761 245.12 245.227 244.12 241.761 242.92L240.961 246.02C240.827 246.754 240.427 247.054 239.761 246.92L237.861 246.82C236.994 246.82 236.294 246.52 235.761 245.92C235.227 245.32 234.961 244.587 234.961 243.72C234.761 239.254 234.394 234.82 233.861 230.42C233.261 225.954 232.361 221.554 231.161 217.22C230.761 215.754 230.861 214.487 231.461 213.42C232.061 212.42 233.127 211.787 234.661 211.52L240.861 210.52C240.927 210.454 241.061 210.42 241.261 210.42C242.127 210.42 242.694 210.92 242.961 211.92L243.261 213.62C244.727 213.02 246.261 212.454 247.861 211.92C249.394 211.454 250.994 211.054 252.661 210.72L252.561 205.22L252.261 199.02C249.327 198.954 246.427 198.854 243.561 198.72C240.627 198.587 237.832 198.234 234.761 197.92C233.027 197.72 232.094 196.687 231.961 194.82C231.694 193.154 232.494 192.22 234.361 192.02C235.827 192.02 237.627 191.92 239.761 191.72C241.494 191.587 243.294 191.42 245.161 191.22C247.027 191.02 249.027 190.82 251.161 190.62L250.361 185.82L249.961 183.82C249.561 182.42 250.094 181.654 251.561 181.52L259.661 180.72C260.194 180.72 260.694 180.854 261.161 181.12C261.561 181.387 261.761 181.82 261.761 182.42L261.961 184.42C261.961 185.154 261.961 185.92 261.961 186.72C261.894 187.454 261.827 188.254 261.761 189.12C264.161 188.72 266.527 188.287 268.861 187.82C271.261 187.354 273.594 186.787 275.861 186.12C276.194 186.054 276.661 186.02 277.261 186.02C278.994 186.02 280.027 186.92 280.361 188.72L280.961 191.42C281.227 192.82 281.027 194.087 280.361 195.22C279.761 196.354 278.727 197.054 277.261 197.32ZM270.361 253.52L269.761 256.42L269.361 260.32V263.12L269.761 265.82C270.161 267.22 271.061 268.054 272.461 268.32C273.794 268.654 275.061 268.82 276.261 268.82C278.327 268.82 280.494 268.52 282.761 267.92L284.461 267.32C284.594 267.254 284.827 267.22 285.161 267.22C286.027 267.22 286.627 267.654 286.961 268.52L287.261 269.32C287.527 269.92 287.561 270.52 287.361 271.12C287.094 271.72 286.627 272.187 285.961 272.52L283.861 273.52C282.061 274.387 280.094 275.087 277.961 275.62C275.827 276.154 273.761 276.42 271.761 276.42C268.161 276.42 265.361 275.32 263.361 273.12C261.361 270.92 260.161 268.087 259.761 264.62C259.627 263.354 259.561 262.087 259.561 260.82C259.494 259.554 259.527 258.287 259.661 257.02C259.861 255.687 259.994 254.52 260.061 253.52C260.194 252.454 260.594 251.654 261.261 251.12C261.994 250.587 262.894 250.32 263.961 250.32L267.861 250.62C268.794 250.62 269.461 250.887 269.861 251.42C270.327 252.02 270.494 252.72 270.361 253.52ZM252.161 255.62C250.627 258.82 248.827 261.854 246.761 264.72C244.761 267.587 242.527 270.287 240.061 272.82C239.527 273.354 238.927 273.62 238.261 273.62C237.527 273.62 236.894 273.354 236.361 272.82L236.161 272.72C235.561 272.12 235.227 271.454 235.161 270.72C235.094 269.987 235.294 269.32 235.761 268.72L237.161 266.42C238.427 264.42 239.461 262.22 240.261 259.82C241.061 257.487 241.694 255.12 242.161 252.72C242.561 250.92 243.594 250.02 245.261 250.02C245.727 250.02 246.061 250.054 246.261 250.12L249.861 250.92C250.994 251.32 251.794 251.92 252.261 252.72C252.727 253.587 252.694 254.554 252.161 255.62ZM242.761 236.62C245.494 237.42 248.294 238.187 251.161 238.92C254.094 239.587 257.027 239.92 259.961 239.92C261.761 239.92 263.561 239.654 265.361 239.12C267.161 238.654 268.727 237.754 270.061 236.42C271.727 234.82 272.527 232.287 272.461 228.82C272.394 226.754 271.927 224.987 271.061 223.52C270.194 222.054 269.127 220.887 267.861 220.02C266.527 219.154 264.994 218.487 263.261 218.02C261.594 217.62 259.861 217.42 258.061 217.42C255.661 217.42 253.227 217.72 250.761 218.32C248.294 218.854 245.961 219.62 243.761 220.62C243.827 221.954 243.827 223.254 243.761 224.52C243.761 225.854 243.727 227.187 243.661 228.52C243.594 229.92 243.461 231.287 243.261 232.62C243.127 233.954 242.961 235.287 242.761 236.62Z" fill="url(#paint0_radial_3497_90617)"/>
</g>
<g filter="url(#filter1_i_3497_90617)">
<path fill-rule="evenodd" clip-rule="evenodd" d="M177.946 89.9889C180.292 87.6444 180.293 83.842 177.949 81.4961C175.604 79.1502 171.802 79.1491 169.456 81.4936L146.003 104.933L122.563 81.4929C120.218 79.1477 116.415 79.1477 114.07 81.4929C111.725 83.8381 111.725 87.6405 114.07 89.9857L137.507 113.423L135.708 115.221C129.888 121.041 121.239 123.578 112.245 123.102C103.193 122.623 94.8022 119.135 89.8965 114.23C79.956 104.289 77.2906 85.7114 92.9398 70.0622L146.016 16.9857L199.094 70.064C214.743 85.7132 212.077 104.291 202.137 114.232C197.828 118.54 190.806 121.783 182.92 122.816C176.813 123.616 170.718 122.65 166.496 120.927C164.633 120.167 162.379 120.415 161.035 121.913L154.626 129.052C163.655 134.566 174.541 136.027 184.48 134.725C194.381 133.428 204.058 129.296 210.63 122.724C225.363 107.991 227.823 81.8081 207.586 61.5713L154.509 8.49297L154.509 8.49273L146.017 0L84.4471 61.5695C64.2102 81.8063 66.6707 107.989 81.4038 122.722C88.835 130.154 100.262 134.496 111.611 135.096C123.017 135.699 135.351 132.563 144.2 123.715L144.201 123.714L177.946 89.9889ZM135.742 159.733H146.006H156.378C156.378 159.733 162.93 160.17 159.763 154.055C159.763 154.055 151.137 133.528 146.006 133.528C140.874 133.528 132.248 154.055 132.248 154.055C129.191 160.279 135.742 159.733 135.742 159.733Z" fill="url(#paint1_radial_3497_90617)"/>
</g>
<path d="M4.21802 300.798H8.0504L15.7152 313.699H16.039L23.7038 300.798H27.5362L17.5504 317.045V328.434H14.2038V317.045L4.21802 300.798Z" fill="white"/>
<path d="M51.1409 300.798H54.4875V319.096C54.4875 320.986 54.0421 322.672 53.1515 324.157C52.2699 325.632 51.0239 326.797 49.4136 327.652C47.8033 328.497 45.9141 328.92 43.746 328.92C41.5779 328.92 39.6887 328.497 38.0784 327.652C36.468 326.797 35.2176 325.632 34.3269 324.157C33.4453 322.672 33.0045 320.986 33.0045 319.096V300.798H36.3511V318.827C36.3511 320.176 36.648 321.377 37.2417 322.429C37.8355 323.473 38.6811 324.296 39.7786 324.899C40.8852 325.493 42.2076 325.79 43.746 325.79C45.2843 325.79 46.6068 325.493 47.7133 324.899C48.8198 324.296 49.6655 323.473 50.2502 322.429C50.844 321.377 51.1409 320.176 51.1409 318.827V300.798Z" fill="white"/>
<path d="M62.3105 328.434V300.798H78.9895V303.767H65.6571V313.105H78.1259V316.074H65.6571V325.466H79.2054V328.434H62.3105Z" fill="white"/>
<path d="M86.1615 328.434V300.798H95.4995C97.6676 300.798 99.4399 301.189 100.816 301.972C102.202 302.746 103.227 303.794 103.893 305.116C104.559 306.439 104.892 307.914 104.892 309.542C104.892 311.171 104.559 312.651 103.893 313.982C103.236 315.313 102.22 316.375 100.843 317.167C99.4669 317.949 97.7036 318.341 95.5535 318.341H88.8603V315.372H95.4455C96.9299 315.372 98.1219 315.116 99.0215 314.603C99.9212 314.09 100.573 313.397 100.978 312.525C101.392 311.643 101.599 310.649 101.599 309.542C101.599 308.436 101.392 307.446 100.978 306.574C100.573 305.701 99.9167 305.017 99.008 304.523C98.0994 304.019 96.8939 303.767 95.3916 303.767H89.508V328.434H86.1615Z" fill="white"/>
<path d="M129.559 300.798H132.906V319.096C132.906 320.986 132.46 322.672 131.57 324.157C130.688 325.632 129.442 326.797 127.832 327.652C126.221 328.497 124.332 328.92 122.164 328.92C119.996 328.92 118.107 328.497 116.496 327.652C114.886 326.797 113.636 325.632 112.745 324.157C111.863 322.672 111.423 320.986 111.423 319.096V300.798H114.769V318.827C114.769 320.176 115.066 321.377 115.66 322.429C116.254 323.473 117.099 324.296 118.197 324.899C119.303 325.493 120.626 325.79 122.164 325.79C123.702 325.79 125.025 325.493 126.131 324.899C127.238 324.296 128.084 323.473 128.668 322.429C129.262 321.377 129.559 320.176 129.559 318.827V300.798Z" fill="white"/>
<path d="M140.729 328.434V300.798H144.075V314.508H144.399L156.814 300.798H161.186L149.581 313.267L161.186 328.434H157.138L147.53 315.588L144.075 319.474V328.434H140.729Z" fill="white"/>
<path d="M166.658 328.434V300.798H183.337V303.767H170.004V313.105H182.473V316.074H170.004V325.466H183.553V328.434H166.658Z" fill="white"/>
<path d="M192.398 328.65C191.732 328.65 191.161 328.412 190.684 327.935C190.207 327.458 189.969 326.887 189.969 326.221C189.969 325.556 190.207 324.984 190.684 324.508C191.161 324.031 191.732 323.792 192.398 323.792C193.063 323.792 193.635 324.031 194.112 324.508C194.588 324.984 194.827 325.556 194.827 326.221C194.827 326.662 194.714 327.067 194.489 327.436C194.273 327.805 193.981 328.102 193.612 328.327C193.252 328.542 192.848 328.65 192.398 328.65Z" fill="white"/>
<path d="M224.352 309.434H221.005C220.808 308.472 220.461 307.626 219.966 306.898C219.481 306.169 218.887 305.557 218.185 305.062C217.492 304.559 216.723 304.181 215.878 303.929C215.032 303.677 214.15 303.551 213.233 303.551C211.559 303.551 210.044 303.974 208.685 304.819C207.336 305.665 206.261 306.911 205.46 308.557C204.668 310.204 204.272 312.223 204.272 314.616C204.272 317.009 204.668 319.029 205.46 320.675C206.261 322.322 207.336 323.568 208.685 324.413C210.044 325.259 211.559 325.682 213.233 325.682C214.15 325.682 215.032 325.556 215.878 325.304C216.723 325.052 217.492 324.679 218.185 324.184C218.887 323.68 219.481 323.064 219.966 322.335C220.461 321.597 220.808 320.752 221.005 319.798H224.352C224.1 321.211 223.641 322.474 222.976 323.59C222.31 324.706 221.482 325.655 220.493 326.437C219.503 327.211 218.392 327.8 217.16 328.205C215.936 328.61 214.627 328.812 213.233 328.812C210.876 328.812 208.78 328.237 206.944 327.085C205.109 325.934 203.665 324.296 202.613 322.173C201.56 320.05 201.034 317.531 201.034 314.616C201.034 311.702 201.56 309.183 202.613 307.059C203.665 304.936 205.109 303.299 206.944 302.148C208.78 300.996 210.876 300.42 213.233 300.42C214.627 300.42 215.936 300.623 217.16 301.028C218.392 301.432 219.503 302.026 220.493 302.809C221.482 303.582 222.31 304.527 222.976 305.643C223.641 306.749 224.1 308.013 224.352 309.434Z" fill="white"/>
<path d="M254.218 314.616C254.218 317.531 253.692 320.05 252.639 322.173C251.587 324.296 250.143 325.934 248.308 327.085C246.472 328.237 244.376 328.812 242.019 328.812C239.662 328.812 237.566 328.237 235.731 327.085C233.896 325.934 232.452 324.296 231.399 322.173C230.347 320.05 229.82 317.531 229.82 314.616C229.82 311.702 230.347 309.183 231.399 307.059C232.452 304.936 233.896 303.299 235.731 302.148C237.566 300.996 239.662 300.42 242.019 300.42C244.376 300.42 246.472 300.996 248.308 302.148C250.143 303.299 251.587 304.936 252.639 307.059C253.692 309.183 254.218 311.702 254.218 314.616ZM250.979 314.616C250.979 312.223 250.579 310.204 249.778 308.557C248.987 306.911 247.912 305.665 246.553 304.819C245.204 303.974 243.693 303.551 242.019 303.551C240.346 303.551 238.83 303.974 237.472 304.819C236.122 305.665 235.047 306.911 234.246 308.557C233.455 310.204 233.059 312.223 233.059 314.616C233.059 317.009 233.455 319.029 234.246 320.675C235.047 322.322 236.122 323.568 237.472 324.413C238.83 325.259 240.346 325.682 242.019 325.682C243.693 325.682 245.204 325.259 246.553 324.413C247.912 323.568 248.987 322.322 249.778 320.675C250.579 319.029 250.979 317.009 250.979 314.616Z" fill="white"/>
<path d="M260.985 300.798H264.98L274.372 323.738H274.695L284.087 300.798H288.082V328.434H284.951V307.437H284.681L276.045 328.434H273.022L264.386 307.437H264.116V328.434H260.985V300.798Z" fill="white"/>
<defs>
<filter id="filter0_i_3497_90617" x="4.81079" y="180.72" width="282.878" height="95.9" filterUnits="userSpaceOnUse" color-interpolation-filters="sRGB">
<feFlood flood-opacity="0" result="BackgroundImageFix"/>
<feBlend mode="normal" in="SourceGraphic" in2="BackgroundImageFix" result="shape"/>
<feColorMatrix in="SourceAlpha" type="matrix" values="0 0 0 0 0 0 0 0 0 0 0 0 0 0 0 0 0 0 127 0" result="hardAlpha"/>
<feOffset dx="0.5" dy="0.5"/>
<feGaussianBlur stdDeviation="0.1"/>
<feComposite in2="hardAlpha" operator="arithmetic" k2="-1" k3="1"/>
<feColorMatrix type="matrix" values="0 0 0 0 0.988889 0 0 0 0 0.958098 0 0 0 0 0.880386 0 0 0 1 0"/>
<feBlend mode="normal" in2="shape" result="effect1_innerShadow_3497_90617"/>
</filter>
<filter id="filter1_i_3497_90617" x="69.8108" y="0" width="152.612" height="159.945" filterUnits="userSpaceOnUse" color-interpolation-filters="sRGB">
<feFlood flood-opacity="0" result="BackgroundImageFix"/>
<feBlend mode="normal" in="SourceGraphic" in2="BackgroundImageFix" result="shape"/>
<feColorMatrix in="SourceAlpha" type="matrix" values="0 0 0 0 0 0 0 0 0 0 0 0 0 0 0 0 0 0 127 0" result="hardAlpha"/>
<feOffset dx="0.5" dy="0.5"/>
<feGaussianBlur stdDeviation="0.1"/>
<feComposite in2="hardAlpha" operator="arithmetic" k2="-1" k3="1"/>
<feColorMatrix type="matrix" values="0 0 0 0 0.988889 0 0 0 0 0.958098 0 0 0 0 0.880386 0 0 0 1 0"/>
<feBlend mode="normal" in2="shape" result="effect1_innerShadow_3497_90617"/>
</filter>
<radialGradient id="paint0_radial_3497_90617" cx="0" cy="0" r="1" gradientUnits="userSpaceOnUse" gradientTransform="translate(76.6141 199.082) rotate(23.5541) scale(187.983 89.6463)">
<stop stop-color="#FFEDBA"/>
<stop offset="0.768144" stop-color="#A5884D"/>
<stop offset="0.983664" stop-color="#D8B774"/>
</radialGradient>
<radialGradient id="paint1_radial_3497_90617" cx="0" cy="0" r="1" gradientUnits="userSpaceOnUse" gradientTransform="translate(108.525 30.6501) rotate(53.4635) scale(156.064 97.1829)">
<stop stop-color="#FFEDBA"/>
<stop offset="0.768144" stop-color="#A5884D"/>
<stop offset="0.983664" stop-color="#D8B774"/>
</radialGradient>
</defs>
</svg>
