<svg width="112" height="112" viewBox="0 0 112 112" fill="none" xmlns="http://www.w3.org/2000/svg">
<g clip-path="url(#clip0_14967_84893)">
<rect width="112" height="112" rx="56" fill="white" fill-opacity="0.4"/>
<path d="M56 112C86.9279 112 112 86.9279 112 56C112 25.0721 86.9279 0 56 0C25.0721 0 0 25.0721 0 56C0 86.9279 25.0721 112 56 112Z" fill="url(#paint0_linear_14967_84893)"/>
<path fill-rule="evenodd" clip-rule="evenodd" d="M25.3489 55.4088C41.674 48.2962 52.56 43.6071 58.0068 41.3416C73.5586 34.8731 76.7901 33.7494 78.8964 33.7123C79.3596 33.7041 80.3955 33.819 81.0664 34.3634C81.6329 34.8231 81.7888 35.4441 81.8634 35.8799C81.938 36.3158 82.0309 37.3087 81.957 38.0845C81.1143 46.9394 77.4677 68.428 75.6125 78.3456C74.8275 82.5422 73.2818 83.9492 71.7854 84.0869C68.5334 84.3862 66.064 81.9378 62.9142 79.8731C57.9855 76.6422 55.2011 74.631 50.4169 71.4783C44.8879 67.8348 48.4721 65.8323 51.6231 62.5596C52.4477 61.7031 66.7762 48.6702 67.0535 47.488C67.0882 47.3401 67.1204 46.7889 66.7929 46.4979C66.4655 46.2068 65.9822 46.3064 65.6335 46.3855C65.1391 46.4977 57.2654 51.7019 42.0124 61.9982C39.7774 63.5329 37.7531 64.2806 35.9394 64.2414C33.9399 64.1982 30.0937 63.1109 27.2344 62.1815C23.7274 61.0415 20.9401 60.4388 21.1828 58.5027C21.3092 57.4943 22.6979 56.463 25.3489 55.4088Z" fill="white"/>
</g>
<defs>
<linearGradient id="paint0_linear_14967_84893" x1="5600" y1="0" x2="5600" y2="11116.9" gradientUnits="userSpaceOnUse">
<stop stop-color="#2AABEE"/>
<stop offset="1" stop-color="#229ED9"/>
</linearGradient>
<clipPath id="clip0_14967_84893">
<rect width="112" height="112" rx="56" fill="white"/>
</clipPath>
</defs>
</svg>
