<svg width="83" height="27" viewBox="0 0 83 27" fill="none" xmlns="http://www.w3.org/2000/svg">
<path d="M11.8483 24.5432C17.9537 24.5432 22.9031 19.5938 22.9031 13.4884C22.9031 7.383 17.9537 2.43359 11.8483 2.43359C5.74287 2.43359 0.793457 7.383 0.793457 13.4884C0.793457 19.5938 5.74287 24.5432 11.8483 24.5432Z" fill="#26A17B"/>
<path d="M13.0266 14.5086V14.5068C12.9502 14.5121 12.5557 14.5352 11.6777 14.5352C10.9756 14.5352 10.4833 14.5157 10.3092 14.5068V14.5086C7.60943 14.3895 5.59575 13.9203 5.59575 13.3569C5.59575 12.7953 7.61121 12.3243 10.3092 12.2052V14.0412C10.4851 14.0536 10.9916 14.0838 11.6901 14.0838C12.529 14.0838 12.9484 14.0483 13.0266 14.0412V12.207C15.721 12.3278 17.7294 12.797 17.7294 13.3587C17.7294 13.9203 15.7193 14.3895 13.0266 14.5104M13.0266 12.0168V10.3746H16.7856V7.87036H6.55194V10.3746H10.3109V12.0168C7.25575 12.1572 4.95947 12.7615 4.95947 13.4866C4.95947 14.2118 7.25752 14.8161 10.3109 14.9582V20.2226H13.0284V14.9582C16.0783 14.8178 18.371 14.2136 18.371 13.4884C18.371 12.7651 16.0783 12.159 13.0284 12.0186" fill="white"/>
<path d="M32.2934 8.55467V11.21H34.8741V13.2023H32.2756V17.2421C32.2756 18.1343 32.768 18.5698 33.4895 18.5698C33.8503 18.5698 34.268 18.456 34.6092 18.2854L35.2544 20.2582C34.5915 20.523 34.0405 20.6368 33.3385 20.6563C31.3088 20.7327 29.9812 19.5757 29.9812 17.2421V13.2023H28.2358V11.21H29.9812V8.80172L32.2934 8.55467ZM76.7846 11.0856L76.9552 12.1662C77.6768 11.0091 78.6437 10.8385 79.5928 10.8385C80.5596 10.8385 81.4891 11.2171 82.001 11.7289L80.9577 13.7391C80.4832 13.3409 80.0477 13.1312 79.2888 13.1312C78.0749 13.1312 76.9552 13.7764 76.9552 15.5021V20.4342H74.6412V11.082L76.7846 11.0856ZM71.1133 14.6704C70.9622 13.4565 70.0131 12.8486 68.6855 12.8486C67.4342 12.8486 66.4087 13.4565 66.0675 14.6704H71.1133ZM66.0302 16.5863C66.1812 17.7433 67.1872 18.5787 68.8188 18.5787C69.6719 18.5787 70.7916 18.2552 71.323 17.706L72.8017 19.1669C71.8153 20.1907 70.2033 20.6848 68.7797 20.6848C65.5556 20.6848 63.6379 18.6924 63.6379 15.6959C63.6379 12.8504 65.5734 10.8012 68.609 10.8012C71.7389 10.8012 73.6939 12.7367 73.3331 16.5863H66.0302ZM55.8249 7.15771V12.3545C56.6602 11.2739 57.684 10.9505 58.7468 10.9505C61.4021 10.9505 62.5786 12.7527 62.5786 15.5039V20.4359H60.2646V15.5235C60.2646 13.8155 59.3724 13.0957 58.1389 13.0957C56.7722 13.0957 55.8249 14.2527 55.8249 15.6568V20.4377H53.5109V7.15949L55.8249 7.15771ZM49.679 8.44804V11.1033H52.2596V13.0957H49.6612V17.1355C49.6612 18.0277 50.1553 18.4631 50.8751 18.4631C51.2359 18.4631 51.6536 18.3494 51.9948 18.1788L52.64 20.1516C51.977 20.4164 51.4261 20.5301 50.724 20.5497C48.6944 20.6261 47.3667 19.4673 47.3667 17.1355V13.0957H45.6214V11.1033H47.3667V8.69508L49.679 8.44804ZM43.286 14.6704C43.135 13.4565 42.1859 12.8486 40.8582 12.8486C39.607 12.8486 38.5815 13.4565 38.2403 14.6704H43.286ZM38.2029 16.5863C38.354 17.7433 39.36 18.5787 40.9915 18.5787C41.8446 18.5787 42.9643 18.2552 43.4958 17.706L44.9745 19.1669C43.9881 20.1907 42.3761 20.6848 40.9524 20.6848C37.7266 20.6848 35.8107 18.6924 35.8107 15.6959C35.8107 12.8504 37.7462 10.8012 40.78 10.8012C43.9099 10.8012 45.8631 12.7367 45.5041 16.5863H38.2029Z" fill="white"/>
</svg>
